# xmcd
#
# Track frame offsets: 
#        182
#        19035
#        54250
#        72050
#        106605
#        165260
#        199875
#        231292
#        243022
#
# Disc length: 3588 seconds
#
# Revision: 10
# Processed by: cddbd v1.5.2PL0 Copyright (c) Steve Scherf et al.
# Submitted via: ExactAudioCopyFreeDBPlugin 1.0
#
DISCID=600e0209
DTITLE=Buddy Guy - Live: The Real Deal
DYEAR=1996
DGENRE=Blues
TTITLE0=I've Got My Eyes On You ft. G.E. Smith and The Saturday Night Li
TTITLE0=ve Band ‎
TTITLE1=Sweet Black Angel (Black Angel Blues) ft. G.E. Smith and The Sat
TTITLE1=urday Night Live Band ‎
TTITLE2=Talk To Me Baby ft. G.E. Smith and The Saturday Night Live Band 
TTITLE2=‎
TTITLE3=My Time After Awhile ft. G.E. Smith and The Saturday Night Live 
TTITLE3=Band ‎
TTITLE4=I've Got News For You ft. G.E. Smith and The Saturday Night Live
TTITLE4=Band ‎
TTITLE5=Damn Right I've Got The Blues ft. G.E. Smith and The Saturday Ni
TTITLE5=ght Live Band ‎
TTITLE6=First Time I Met The Blues ft. G.E. Smith and The Saturday Night
TTITLE6=Live Band ‎
TTITLE7=Ain't That Lovin' You ft. G.E. Smith and The Saturday Night Live
TTITLE7=Band ‎
TTITLE8=Let Me Love You Baby ft. G.E. Smith and The Saturday Night Live 
TTITLE8=Band ‎
EXTD=YEAR: 1996
EXTT0=
EXTT1=
EXTT2=
EXTT3=
EXTT4=
EXTT5=
EXTT6=
EXTT7=
EXTT8=
PLAYORDER=
